<svg width="58" height="58" viewBox="0 0 58 58" fill="none" xmlns="http://www.w3.org/2000/svg">
<path d="M25.384 0L21.7681 8.60598C21.0449 8.82294 20.394 9.18454 19.7431 9.54613L11.1372 5.93017L5.93017 11.1372L9.54613 19.7431C9.18454 20.4663 8.89526 21.0449 8.60598 21.7681L0 25.384V32.616L8.60598 36.2319C8.89526 36.9551 9.18454 37.5337 9.54613 38.2569L5.93017 46.8628L11.1372 52.0698L19.7431 48.4539C20.394 48.7431 21.0449 49.1047 21.7681 49.394L25.384 58H32.616L36.2319 49.394C36.8828 49.1047 37.606 48.8155 38.2569 48.4539L46.8628 52.0698L52.0698 46.8628L48.4539 38.2569C48.7431 37.606 49.1047 36.8828 49.394 36.2319L58 32.616V25.384L49.394 21.7681C49.1771 21.1172 48.8155 20.394 48.4539 19.7431L52.0698 11.1372L46.8628 5.93017L38.2569 9.54613C37.606 9.25686 36.8828 8.89526 36.2319 8.60598L32.616 0L25.384 0ZM29 18.0798C35.0025 18.0798 39.8479 22.9252 39.8479 28.9277C39.8479 34.9302 35.0025 39.7756 29 39.7756C22.9975 39.7756 18.1521 34.9302 18.1521 28.9277C18.1521 22.9252 22.9975 18.0798 29 18.0798Z" fill="#228BE6"/>
</svg>
