<!-- icon666.com - MILLIONS OF FREE VECTOR ICONS --><svg id="Layer_3" enable-background="new 0 0 60 60" viewBox="0 0 60 60" xmlns="http://www.w3.org/2000/svg"><path d="m27.55 32.38c.55 0 1-.45 1-1v-10.36l-10.78-10.78-10.77 10.78v10.36c0 .55.44 1 1 1h6.44v-7.93h6.66v7.93z" fill="#000000" style="fill: rgb(36, 99, 235);"></path><path d="m6.7 18.48 11.07-11.07 11.07 11.07c.2.2.45.3.71.3.25 0 .51-.1.7-.3.4-.39.4-1.02 0-1.41l-11.77-11.78c-.39-.39-1.02-.39-1.41 0l-11.78 11.78c-.39.39-.39 1.02 0 1.41s1.02.39 1.41 0z" fill="#000000" style="fill: rgb(36, 99, 235);"></path><path d="m33.03 55h3.19 4.36 5.86 4.36 3.2c.55 0 1-.45 1-1s-.45-1-1-1h-2.2v-24.11c0-.55-.45-1-1-1h-14.58c-.55 0-1 .45-1 1v24.11h-2.19c-.55 0-1 .45-1 1s.45 1 1 1zm7.02-21.06h6.93c.55 0 1 .45 1 1s-.45 1-1 1h-6.93c-.55 0-1-.45-1-1s.45-1 1-1zm0 6.24h6.93c.55 0 1 .45 1 1s-.45 1-1 1h-6.93c-.55 0-1-.45-1-1s.45-1 1-1zm-.46 6.76c0-.55.45-1 1-1h5.86c.55 0 1 .45 1 1v6.06h-7.86z" fill="#000000" style="fill: rgb(36, 99, 235);"></path><path d="m33.22 40.45h-14.45v-9.07c0-.55-.44-1-1-1-.55 0-1 .45-1 1v10.07c0 .55.45 1 1 1h15.45z" fill="#000000" style="fill: rgb(36, 99, 235);"></path><path d="m30.55 22.68h11.96v3.21h2v-4.21c0-.55-.45-1-1-1h-12.96z" fill="#000000" style="fill: rgb(36, 99, 235);"></path></svg>