<svg width="10" height="14" viewBox="0 0 10 14" fill="none" xmlns="http://www.w3.org/2000/svg">
<path d="M5 14C4.83333 14 4.69048 13.9533 4.57143 13.86C4.45238 13.7667 4.3631 13.6442 4.30357 13.4925C4.07738 12.8392 3.79167 12.2267 3.44643 11.655C3.1131 11.0833 2.64286 10.4125 2.03571 9.6425C1.42857 8.8725 0.934524 8.1375 0.553571 7.4375C0.184524 6.7375 0 5.89167 0 4.9C0 3.535 0.482143 2.38 1.44643 1.435C2.42262 0.478333 3.60714 0 5 0C6.39286 0 7.57143 0.478333 8.53571 1.435C9.5119 2.38 10 3.535 10 4.9C10 5.96167 9.79167 6.84833 9.375 7.56C8.97024 8.26 8.5 8.95417 7.96429 9.6425C7.32143 10.4825 6.83333 11.1825 6.5 11.7425C6.17857 12.2908 5.91071 12.8742 5.69643 13.4925C5.63691 13.6558 5.54167 13.7842 5.41072 13.8775C5.29167 13.9592 5.15476 14 5 14ZM5 6.65C5.5 6.65 5.92262 6.48083 6.26786 6.1425C6.6131 5.80417 6.78571 5.39 6.78571 4.9C6.78571 4.41 6.6131 3.99583 6.26786 3.6575C5.92262 3.31917 5.5 3.15 5 3.15C4.5 3.15 4.07738 3.31917 3.73214 3.6575C3.3869 3.99583 3.21429 4.41 3.21429 4.9C3.21429 5.39 3.3869 5.80417 3.73214 6.1425C4.07738 6.48083 4.5 6.65 5 6.65Z" fill="#2563EB"/>
</svg>
