<svg width="15" height="14" viewBox="0 0 15 14" fill="none" xmlns="http://www.w3.org/2000/svg">
<path d="M5.2675 0C4.305 0 3.5175 0.7875 3.5175 1.75V3.5H0.175C0.07 3.5 0.0175 3.57 0.0175 3.6575V7.875C0.0175 8.365 0.4025 8.75 0.8925 8.75H13.1425C13.6325 8.75 14.0175 8.365 14.0175 7.875V3.6575C14.0175 3.5525 13.9475 3.5 13.86 3.5H10.5175V1.75C10.5175 0.7875 9.73 0 8.7675 0L5.2675 0ZM5.2675 1.75H8.7675V3.5H5.2675V1.75ZM0.0175 10.3425V13.8425C0.0175 13.93 0.0875 14 0.175 14H13.8425C13.93 14 14 13.93 14 13.8425V10.3425C13.72 10.4475 13.44 10.5 13.125 10.5H0.875C0.56 10.5 0.28 10.43 0 10.3425H0.0175Z" fill="#2563EB"/>
</svg>
