<svg width="10" height="14" viewBox="0 0 10 14" fill="none" xmlns="http://www.w3.org/2000/svg">
<path d="M4.54198 14V0H5.58524V14H4.54198ZM7.55089 4.47891C7.49152 4.0013 7.24131 3.62943 6.80025 3.36328C6.36344 3.09714 5.79517 2.96406 5.09542 2.96406C4.60348 2.96406 4.18151 3.02786 3.82952 3.15547C3.47752 3.28307 3.20823 3.45625 3.02163 3.675C2.83503 3.89375 2.73961 4.14349 2.73537 4.42422C2.73537 4.65755 2.79686 4.8599 2.91985 5.03125C3.04707 5.2026 3.21883 5.34844 3.43511 5.46875C3.6514 5.58542 3.89101 5.68385 4.15394 5.76406C4.41688 5.84427 4.68193 5.91172 4.94911 5.96641L6.17048 6.22891C6.66243 6.32734 7.13528 6.46042 7.58906 6.62812C8.04707 6.79583 8.45632 7.00729 8.81679 7.2625C9.18151 7.51771 9.46989 7.82578 9.68193 8.18672C9.89398 8.54766 10 8.97057 10 9.45547C10 10.1117 9.80492 10.6896 9.41476 11.1891C9.0246 11.6849 8.46056 12.0732 7.72265 12.3539C6.98897 12.631 6.10051 12.7695 5.05725 12.7695C4.04368 12.7695 3.1637 12.6346 2.4173 12.3648C1.67515 12.0951 1.09415 11.7013 0.6743 11.1836C0.258694 10.6659 0.0339271 10.0352 0 9.29141H2.32188C2.35581 9.68151 2.49576 10.006 2.74173 10.2648C2.9877 10.5237 3.30789 10.7169 3.70229 10.8445C4.10093 10.9721 4.54623 11.0359 5.03817 11.0359C5.55131 11.0359 6.00085 10.9703 6.38677 10.8391C6.77693 10.7042 7.08227 10.5182 7.3028 10.2812C7.52332 10.0406 7.63571 9.7599 7.63995 9.43906C7.63571 9.1474 7.53605 8.90677 7.34097 8.71719C7.14589 8.52396 6.87235 8.36354 6.52036 8.23594C6.1726 8.10469 5.76548 7.98802 5.29898 7.88594L3.81679 7.55781C2.74385 7.32083 1.89567 6.96172 1.27226 6.48047C0.653096 5.99557 0.343512 5.35208 0.343512 4.55C0.343512 3.8901 0.551315 3.31224 0.966921 2.81641C1.38677 2.32057 1.95717 1.93594 2.67812 1.6625C3.39907 1.38542 4.21544 1.24688 5.12723 1.24688C6.05174 1.24688 6.86175 1.38542 7.55725 1.6625C8.257 1.93594 8.80619 2.31693 9.20483 2.80547C9.60348 3.29036 9.80916 3.84818 9.82188 4.47891H7.55089Z" fill="#2563EB"/>
</svg>
